<svg id="visual" viewBox="0 0 900 600" width="900" height="600" xmlns="http://www.w3.org/2000/svg" xmlns:xlink="http://www.w3.org/1999/xlink" version="1.1"><g transform="translate(413.665818585484 318.1027522029516)"><path d="M200.9 -264.7C260.3 -233.3 308.5 -174.6 318.9 -111C329.4 -47.5 302.1 20.9 278.1 89C254.2 157.2 233.5 225 187.7 249.2C141.9 273.4 70.9 253.9 9.7 240.5C-51.5 227.2 -103.1 220 -147.6 195.4C-192.1 170.8 -229.7 128.8 -242.8 80.7C-255.8 32.7 -244.4 -21.5 -231.7 -79.8C-219 -138.1 -205 -200.5 -166.2 -238.6C-127.4 -276.6 -63.7 -290.3 3.5 -295.2C70.7 -300 141.5 -296 200.9 -264.7" fill="#715DF2"></path></g></svg>